<svg width="400" height="300" viewBox="0 0 400 300" fill="none" xmlns="http://www.w3.org/2000/svg">
    <path d="M200 50c-66.274 0-120 53.726-120 120s53.726 120 120 120 120-53.726 120-120S266.274 50 200 50z" fill="#4299e1" opacity="0.1"/>
    <path d="M260 160h-40v-40c0-11.046-8.954-20-20-20s-20 8.954-20 20v40h-40c-11.046 0-20 8.954-20 20s8.954 20 20 20h40v40c0 11.046 8.954 20 20 20s20-8.954 20-20v-40h40c11.046 0 20-8.954 20-20s-8.954-20-20-20z" fill="#4299e1"/>
    <path d="M320 140c-5.523 0-10 4.477-10 10s4.477 10 10 10 10-4.477 10-10-4.477-10-10-10zM80 180c-5.523 0-10 4.477-10 10s4.477 10 10 10 10-4.477 10-10-4.477-10-10-10z" fill="#38b2ac"/>
</svg> 